<svg height="512pt" style="fill:#fff;" viewBox="-40 0 512 512" width="512pt" xmlns="http://www.w3.org/2000/svg"><path d="m382.566406 159.253906c-16.890625-8.445312-27.492187-25.261718-27.878906-44.070312 22.894531-8.234375 39.3125-30.15625 39.3125-55.851563 0-32.714843-26.613281-59.332031-59.332031-59.332031h-236c-32.71875 0-59.332031 26.617188-59.332031 59.332031 0 25.695313 16.417968 47.621094 39.3125 55.851563-.386719 18.808594-10.992188 35.625-27.878907 44.070312l-.761719.382813c-30.847656 15.421875-50.007812 46.429687-50.007812 80.917969v211.445312c0 33.085938 26.914062 60 60 60h308.894531c15.828125 0 30.765625-6.109375 42.054688-17.207031 11.289062-11.09375 17.660156-25.921875 17.9375-41.75l3.671875-211.296875c.601562-34.625-19.023438-67.003906-49.992188-82.492188zm-283.898437-119.253906h236c10.660156 0 19.332031 8.671875 19.332031 19.332031 0 10.660157-8.671875 19.335938-19.332031 19.335938h-236c-10.660157 0-19.332031-8.675781-19.332031-19.335938 0-10.660156 8.671874-19.332031 19.332031-19.332031zm290.222656 412.347656c-.1875 10.835938-9.160156 19.652344-19.996094 19.652344h-308.894531c-11.027344 0-20-8.972656-20-20v-211.445312c0-19.242188 10.691406-36.539063 27.898438-45.144532l.761718-.378906c29.480469-14.742188 48.277344-43.722656 49.882813-76.363281h196.25c1.605469 32.644531 20.402343 61.621093 49.882812 76.363281 17.277344 8.640625 28.226563 26.703125 27.890625 46.019531zm-112.890625-97.679687c0 25.699219-16.425781 47.628906-39.332031 55.855469v3.476562c0 11.046875-8.953125 20-20 20s-20-8.953125-20-20v-3.441406c-8.164063-2.914063-15.644531-7.625-21.957031-13.9375-7.808594-7.8125-7.808594-20.476563.003906-28.285156 7.8125-7.808594 20.472656-7.808594 28.285156.003906 12.144531 12.144531 33 3.4375 33-13.671875 0-10.660157-8.671875-19.335938-19.332031-19.335938-32.71875 0-59.332031-26.613281-59.332031-59.332031 0-25.699219 16.425781-47.628906 39.332031-55.855469v-3.476562c0-11.046875 8.953125-20 20-20s20 8.953125 20 20v3.4375c8.164062 2.917969 15.644531 7.628906 21.957031 13.941406 7.808594 7.8125 7.808594 20.472656-.003906 28.285156-7.808594 7.808594-20.472656 7.808594-28.285156-.003906-12.144532-12.144531-33-3.441406-33 13.671875 0 10.660156 8.671874 19.332031 19.332031 19.332031 32.71875 0 59.332031 26.617188 59.332031 59.335938zm0 0"/></svg>